<svg width="757" height="112" viewBox="0 0 757 112" fill="none" xmlns="http://www.w3.org/2000/svg">
<path d="M11.2 24.6667C17.0667 38.2667 22.1333 48.5333 22.4 47.4667C22.8 45.8667 18.4 19.6 15.2 3.6C14.5333 0.266666 14 -4.45046e-07 7.33333 -4.45046e-07H0.266663L11.2 24.6667Z" fill="white"/>
<path d="M26.6667 0.799994C26.6667 1.33333 31.6 12.5333 37.6 25.8667C46 44.6667 48.4 51.3333 48.4 56C48.4 60.5333 46 67.3333 38.2667 84.5333C32.6667 96.9333 27.7333 108.133 27.3333 109.467C26.5333 111.733 27.3333 112 37.2 112C43.2 112 48 111.733 48 111.333C48 110.933 49.7333 100.667 52 88.4C57.0667 60.6667 57.0667 50.9333 52 23.0667C49.8667 10.9333 48 0.799994 48 0.533328C48 0.266661 43.2 -5.84126e-06 37.3333 -5.84126e-06C31.4667 -5.84126e-06 26.6667 0.399994 26.6667 0.799994Z" fill="white"/>
<path d="M60.5333 2.39999C60.9333 3.73333 65.8667 14.9333 71.4667 27.3333C78.4 42.9333 81.6 51.7333 81.6 55.4667C81.7333 59.6 79.0667 67.0667 70.9333 85.7333C64.9333 99.2 60 110.667 60 111.2C60 111.6 67.2 112 76 112H92V56V-5.84126e-06H75.8667C61.0667 -5.84126e-06 59.8667 0.133327 60.5333 2.39999Z" fill="white"/>
<path d="M561.333 10.5333C550.133 14.1333 543.067 18.2667 536.4 24.8C519.467 41.8667 518.8 66.2667 534.667 84.5333C544.667 95.8667 561.2 102.667 578.533 102.667C595.733 102.667 608.667 97.8667 620 87.2C638.133 70.2667 639.6 44.9333 623.467 27.0667C608.533 10.6667 582.4 3.73333 561.333 10.5333ZM597.067 16.1333C606 20.5333 612.933 27.6 617.467 37.2C621.733 46 621.867 64.6667 617.733 73.6C608.8 93.0667 587.733 103.467 568.4 98C547.2 92 533.2 70.1333 537.067 48.9333C540 33.2 548.667 21.3333 561.733 15.2C572.4 10.2667 586.267 10.6667 597.067 16.1333Z" fill="white"/>
<path d="M140 56.1333V101.6L176.4 101.067C210.8 100.667 213.067 100.4 219.333 97.6C222.933 95.8667 227.333 93.2 229.067 91.6C241.867 79.7333 236.133 62.4 217.467 55.8667L212.933 54.2667L217.467 52C224.533 48.2667 228.933 43.4667 230.8 37.6C233.867 27.0667 225.2 16.2667 210.267 12.4C205.467 11.2 193.867 10.6667 171.733 10.6667H140V56.1333ZM205.333 18C211.733 21.3333 214.667 26.2667 214.667 33.6C214.667 41.7333 211.2 47.2 204.667 49.4667C198.4 51.8667 198.133 56.6667 204.267 57.8667C218 60.6667 224.533 77.6 215.867 88.5333C210.533 95.3333 207.467 96 180.667 96H156V56V16H178.667C196.133 16 202.4 16.4 205.333 18Z" fill="white"/>
<path d="M262.667 56V101.467L270.4 101.067L278 100.667L278.4 55.6L278.667 10.6667H270.667H262.667V56Z" fill="white"/>
<path d="M310.667 53.0667C310.667 94.5333 310.667 95.6 313.467 98.1333C316 100.4 319.067 100.667 350.133 101.067C383.467 101.467 384 101.467 384 98.6667C384 96.1333 383.333 96 356.8 96C333.733 96 329.2 95.7333 327.467 93.8667C325.6 92.1333 325.333 86.4 325.333 51.2V10.6667H318H310.667V53.0667Z" fill="white"/>
<path d="M400 56V101.467L407.733 101.067L415.333 100.667L415.733 78.9333L416 57.3333H446.667H477.333V79.3333V101.333H484.667H492V56V10.6667H484.667H477.467L477.067 31.6L476.667 52.6667L446.4 53.0667L416.133 53.3333L415.733 32.4L415.333 11.3333L407.733 10.9333L400 10.5333V56Z" fill="white"/>
<path d="M665.6 55.6L666 100.667L672.933 101.067L680 101.467L680.267 63.2C680.533 35.3333 681.067 24.8 682.267 24.4C684 23.7333 684.667 24.6667 717.2 69.7333L740.267 101.467L748.4 101.067L756.667 100.667V56V11.3333H749.333H742L741.333 52.9333L740.667 94.4L710.667 52.9333L680.667 11.3333L672.933 10.9333L665.333 10.5333L665.6 55.6Z" fill="white"/>
<path d="M11.2 86.8L0.533325 111.333L7.06666 111.733C10.6667 112 13.8667 111.867 14.2667 111.6C15.0667 110.667 22.8 66.2667 22.4 64.1333C22.1333 63.2 17.2 73.3333 11.2 86.8Z" fill="white"/>
</svg>
